<?xml version="1.0" encoding="UTF-8" standalone="no"?>
<!-- Created with Inkscape (http://www.inkscape.org/) -->

<svg
   width="207.43073mm"
   height="66.257721mm"
   viewBox="0 0 207.43073 66.257721"
   version="1.1"
   id="svg5"
   xmlns="http://www.w3.org/2000/svg"
   xmlns:svg="http://www.w3.org/2000/svg">
  <defs
     id="defs2">
    <clipPath
       id="cp0">
      <path
         transform="scale(0.75)"
         d="m 56.48,0 v 1056 h 703.2 V 0 Z"
         fill-rule="evenodd"
         id="path15" />
    </clipPath>
    <clipPath
       id="cp1">
      <path
         transform="scale(0.75)"
         d="m 56.48,0 v 1056 h 703.2 V 0 Z"
         fill-rule="evenodd"
         id="path28" />
    </clipPath>
    <clipPath
       id="cp2">
      <path
         transform="matrix(0.75,0,0,0.75,215.40001,221.63999)"
         d="m -230.72,-295.52 v 1056 h 703.2 v -1056 z"
         fill-rule="evenodd"
         id="path61" />
    </clipPath>
    <clipPath
       id="cp3">
      <path
         transform="scale(0.75)"
         d="m 56.48,0 v 1056 h 703.2 V 0 Z"
         fill-rule="evenodd"
         id="path70" />
    </clipPath>
    <clipPath
       id="cp4">
      <path
         transform="scale(0.75)"
         d="m 56.48,0 v 1056 h 703.2 V 0 Z"
         fill-rule="evenodd"
         id="path91" />
    </clipPath>
    <clipPath
       id="cp5">
      <path
         transform="scale(0.75)"
         d="m 56.48,0 v 1056 h 703.2 V 0 Z"
         fill-rule="evenodd"
         id="path104" />
    </clipPath>
    <clipPath
       id="cp6">
      <path
         transform="scale(0.75)"
         d="m 56.48,0 v 1056 h 703.2 V 0 Z"
         fill-rule="evenodd"
         id="path131" />
    </clipPath>
    <clipPath
       id="cp7">
      <path
         transform="scale(0.75)"
         d="m 56.48,0 v 1056 h 703.2 V 0 Z"
         fill-rule="evenodd"
         id="path150" />
    </clipPath>
    <clipPath
       id="cp8">
      <path
         transform="matrix(0.75,0,0,0.75,434.40003,491.64)"
         d="m -522.72,-655.52 v 1056 h 703.2 v -1056 z"
         fill-rule="evenodd"
         id="path183" />
    </clipPath>
    <clipPath
       id="cp9">
      <path
         transform="scale(0.75)"
         d="m 56.48,0 v 1056 h 703.2 V 0 Z"
         fill-rule="evenodd"
         id="path192" />
    </clipPath>
    <clipPath
       id="cp10">
      <path
         transform="scale(0.75)"
         d="m 56.48,0 v 1056 h 703.2 V 0 Z"
         fill-rule="evenodd"
         id="path213" />
    </clipPath>
    <clipPath
       id="cp11">
      <path
         transform="scale(0.75)"
         d="m 56.48,0 v 1056 h 703.2 V 0 Z"
         fill-rule="evenodd"
         id="path226" />
    </clipPath>
    <clipPath
       id="cp12">
      <path
         transform="scale(0.75)"
         d="m 56.48,0 v 1056 h 703.2 V 0 Z"
         fill-rule="evenodd"
         id="path259" />
    </clipPath>
    <clipPath
       id="cp13">
      <path
         transform="matrix(0.75,0,0,0.75,461.76,95.64)"
         d="m -559.2,-127.52 v 1056 H 144 v -1056 z"
         fill-rule="evenodd"
         id="path292" />
    </clipPath>
    <clipPath
       id="cp14">
      <path
         transform="scale(0.75)"
         d="m 56.48,0 v 1056 h 703.2 V 0 Z"
         fill-rule="evenodd"
         id="path301" />
    </clipPath>
    <clipPath
       id="cp15">
      <path
         transform="scale(0.75)"
         d="m 56.48,0 v 1056 h 703.2 V 0 Z"
         fill-rule="evenodd"
         id="path322" />
    </clipPath>
    <clipPath
       id="cp16">
      <path
         transform="scale(0.75)"
         d="m 56.48,0 v 1056 h 703.2 V 0 Z"
         fill-rule="evenodd"
         id="path335" />
    </clipPath>
    <clipPath
       id="cp17">
      <path
         transform="scale(0.75)"
         d="m 56.48,0 v 1056 h 703.2 V 0 Z"
         fill-rule="evenodd"
         id="path362" />
    </clipPath>
    <clipPath
       id="cp18">
      <path
         transform="scale(0.75)"
         d="M 410.56,0 H 759.52 V 33.12 H 410.56 Z"
         fill-rule="evenodd"
         id="path373" />
    </clipPath>
    <clipPath
       id="cp21">
      <path
         transform="scale(0.75)"
         d="M 56.48,0 H 410.56 V 33.12 H 56.48 Z"
         fill-rule="evenodd"
         id="path390" />
    </clipPath>
  </defs>
  <g
     id="layer1"
     transform="translate(-1.28464,-115.37114)">
    <g
       id="g456">
      <path
         d="m 208.71536,115.37114 v 66.25772 H 1.28464 v -66.25772 z"
         fill="#ffffff"
         id="path13"
         style="stroke-width:0.191722" />
      <g
         id="g1181"
         transform="rotate(90,89.720243,163.50629)">
        <g
           clip-path="url(#cp0)"
           id="g24"
           transform="matrix(0.35277778,0,0,0.35277778,12.928452,8.5265185)">
          <path
             transform="matrix(0.75,0,0,0.75,176.16,575.16006)"
             d="m 0,0 c 17.12,0 23.68,6.72 30.72,13.76 7.04,7.04 13.76,13.76 13.76,30.72 0,13.92 11.2,25.12 25.12,25.12 6.72,0 12.96,-2.56 17.76,-7.36 C 92,57.44 94.72,51.2 94.72,44.48 94.72,30.72 83.36,19.36 69.6,19.36 52.48,19.36 45.92,12.8 38.88,5.76 31.84,-1.28 25.12,-8 25.12,-24.96 25.12,-38.88 13.92,-50.08 0,-50.08 c -6.72,0 -12.96,2.56 -17.76,7.36 -4.64,4.64 -7.36,11.04 -7.36,17.76 C -25.12,-11.2 -13.76,0 0,0 Z"
             fill="#005aa9"
             id="path18" />
          <path
             transform="matrix(0.75,0,0,0.75,124.08,627.36)"
             d="m 0,0 c 16.96,0 23.68,6.72 30.72,13.76 7.04,7.04 13.6,13.6 13.6,30.72 0,6.72 2.72,12.96 7.36,17.76 4.8,4.64 11.04,7.36 17.76,7.36 6.72,0 12.96,-2.72 17.76,-7.36 C 92,57.44 94.56,51.2 94.56,44.48 94.56,37.76 92,31.52 87.2,26.72 82.4,21.92 76.16,19.36 69.44,19.36 52.48,19.36 45.76,12.64 38.72,5.6 31.68,-1.44 24.96,-8 24.96,-25.12 c 0,-6.72 -2.56,-12.96 -7.36,-17.76 -4.64,-4.64 -11.04,-7.36 -17.6,-7.36 -6.72,0 -13.12,2.72 -17.76,7.36 -4.8,4.8 -7.36,11.04 -7.36,17.76 0,6.72 2.56,12.96 7.36,17.76 C -13.12,-2.56 -6.72,0 0,0 Z"
             fill="#c38a3b"
             id="path20" />
          <path
             transform="matrix(0.75,0,0,0.75,147.12,585.48)"
             d="m 0,0 c 7.04,7.04 13.6,13.76 13.6,30.72 0,6.72 2.72,12.96 7.36,17.76 4.8,4.8 11.04,7.36 17.76,7.36 6.72,0 12.96,-2.56 17.76,-7.36 4.8,-4.8 7.36,-11.04 7.36,-17.76 C 63.84,16.96 52.64,5.6 38.72,5.6 21.76,5.6 15.04,-0.96 8,-8 0.96,-15.04 -5.76,-21.76 -5.76,-38.72 c 0,-13.92 -11.2,-25.12 -24.96,-25.12 -6.72,0 -13.12,2.56 -17.76,7.36 -4.8,4.64 -7.36,11.04 -7.36,17.76 0,6.56 2.56,12.96 7.36,17.6 4.64,4.8 11.04,7.36 17.76,7.36 16.96,0 23.68,6.72 30.72,13.76 z"
             fill="#d71c33"
             id="path22" />
        </g>
        <g
           id="g1125">
          <g
             id="g1074">
            <path
               d="m 80.492451,185.14118 h 8.424333 v 1.82034 h -8.424333 z"
               fill="#005aa9"
               id="path26"
               style="stroke-width:0.264583" />
            <path
               d="m 88.916789,177.26719 v 1.73567 h -3.767667 c -0.465666,0 -0.804333,0.0847 -1.058333,0.254 -0.211667,0.16933 -0.338667,0.42333 -0.338667,0.80433 0,0.46567 0.169334,0.84667 0.508,1.05833 0.338667,0.21167 0.846667,0.29634 1.608667,0.29634 h 3.048 v 1.778 h -6.434667 v -1.35467 l 0.804334,-0.21167 v -0.127 c -0.296334,-0.16933 -0.508,-0.46566 -0.677334,-0.80433 -0.169333,-0.33867 -0.254,-0.71967 -0.254,-1.143 0,-0.762 0.211667,-1.31233 0.635,-1.69333 0.381,-0.381 0.973667,-0.59267 1.735667,-0.59267 z"
               fill="#005aa9"
               id="path31"
               style="stroke-width:0.264583" />
            <path
               d="m 87.011786,171.00185 c 0.635,0 1.143,0.21167 1.481667,0.67733 0.338666,0.46567 0.508,1.143 0.508,2.032 0,0.46567 -0.04233,0.889 -0.08467,1.22767 -0.04233,0.29633 -0.169333,0.635 -0.296333,0.889 h -1.439334 c 0.169334,-0.29633 0.296334,-0.67733 0.381,-1.10067 0.127,-0.381 0.169334,-0.762 0.169334,-1.05833 0,-0.635 -0.169334,-0.93133 -0.550334,-0.93133 -0.127,0 -0.254,0.0423 -0.338666,0.127 -0.08467,0.0847 -0.169334,0.21166 -0.296334,0.42333 -0.08467,0.21167 -0.211666,0.46567 -0.381,0.80433 -0.211666,0.508 -0.381,0.889 -0.550333,1.10067 -0.211667,0.21167 -0.381,0.381 -0.635,0.508 -0.211667,0.0847 -0.508,0.16933 -0.804333,0.16933 -0.592667,0 -1.016,-0.254 -1.354667,-0.67733 -0.296333,-0.42333 -0.465667,-1.05833 -0.465667,-1.86267 0,-0.80433 0.169334,-1.524 0.508,-2.286 l 1.27,0.55034 c -0.127,0.29633 -0.254,0.635 -0.338666,0.889 -0.08467,0.29633 -0.127,0.55033 -0.127,0.84666 0,0.55034 0.127,0.80434 0.423333,0.80434 0.127,0 0.296333,-0.0847 0.381,-0.254 0.127,-0.16934 0.296333,-0.55034 0.508,-1.10067 0.211667,-0.508 0.423333,-0.889 0.592667,-1.10067 0.169333,-0.254 0.381,-0.42333 0.592666,-0.508 0.254,-0.127 0.508,-0.16933 0.846667,-0.16933 z"
               fill="#005aa9"
               id="path33"
               style="stroke-width:0.264583" />
            <path
               d="m 87.604452,166.93785 c 0,-0.29633 -0.04233,-0.67733 -0.169333,-1.10067 h 1.27 c 0.211666,0.42334 0.296333,0.97367 0.296333,1.60867 0,0.67733 -0.169333,1.18533 -0.508,1.524 -0.381,0.29633 -0.889,0.46567 -1.608667,0.46567 h -3.090333 v 0.84666 h -0.719667 l -0.592666,-0.97366 -1.354667,-0.508 v -1.10067 h 1.354667 v -1.82033 h 1.312333 v 1.82033 h 3.090333 c 0.254,0 0.423334,-0.0847 0.550334,-0.21167 0.127,-0.127 0.169333,-0.33866 0.169333,-0.55033 z"
               fill="#005aa9"
               id="path35"
               style="stroke-width:0.264583" />
            <path
               d="m 88.916789,162.78918 v 1.73567 h -6.434667 v -1.73567 z m -8.085667,1.82033 c -0.592666,0 -0.846666,-0.33866 -0.846666,-0.97366 0,-0.635 0.254,-0.93134 0.846666,-0.93134 0.254,0 0.465667,0.0847 0.635,0.254 0.127,0.127 0.211667,0.381 0.211667,0.67734 0,0.635 -0.296333,0.97366 -0.846667,0.97366 z"
               fill="#005aa9"
               id="path37"
               style="stroke-width:0.264583" />
            <path
               d="m 87.604452,158.25952 c 0,-0.33867 -0.04233,-0.67733 -0.169333,-1.10067 h 1.27 c 0.211666,0.42334 0.296333,0.97367 0.296333,1.60867 0,0.67733 -0.169333,1.18533 -0.508,1.524 -0.381,0.29633 -0.889,0.46567 -1.608667,0.46567 h -3.090333 v 0.84666 h -0.719667 l -0.592666,-0.97366 -1.354667,-0.508 v -1.10067 h 1.354667 v -1.82033 h 1.312333 v 1.82033 h 3.090333 c 0.254,0 0.423334,-0.0847 0.550334,-0.21167 0.127,-0.16933 0.169333,-0.33866 0.169333,-0.55033 z"
               fill="#005aa9"
               id="path39"
               style="stroke-width:0.264583" />
            <path
               d="m 88.916789,151.31685 -0.846667,0.21167 v 0.0847 c 0.296334,0.21167 0.550334,0.46567 0.677334,0.80434 0.169333,0.33866 0.254,0.762 0.254,1.18533 0,0.762 -0.211667,1.31233 -0.592667,1.69333 -0.423333,0.381 -0.973667,0.59267 -1.735667,0.59267 h -4.191 v -1.73567 h 3.767667 c 0.423333,0 0.804333,-0.0847 1.016,-0.254 0.254,-0.16933 0.338667,-0.42333 0.338667,-0.80433 0,-0.46567 -0.169334,-0.84667 -0.465667,-1.05833 -0.338667,-0.21167 -0.889,-0.33867 -1.651,-0.33867 h -3.005667 v -1.73567 h 6.434667 z"
               fill="#005aa9"
               id="path41"
               style="stroke-width:0.264583" />
            <path
               d="m 87.604452,145.43253 c 0,-0.29633 -0.04233,-0.67733 -0.169333,-1.10067 h 1.27 c 0.211666,0.42334 0.296333,0.97367 0.296333,1.60867 0,0.67733 -0.169333,1.18533 -0.508,1.524 -0.381,0.29633 -0.889,0.46567 -1.608667,0.46567 h -3.090333 v 0.84666 h -0.719667 l -0.592666,-0.97366 -1.354667,-0.508 v -1.10067 h 1.354667 v -1.778 h 1.312333 v 1.778 h 3.090333 c 0.254,0 0.423334,-0.0847 0.550334,-0.21167 0.127,-0.127 0.169333,-0.33866 0.169333,-0.55033 z"
               fill="#005aa9"
               id="path43"
               style="stroke-width:0.264583" />
            <path
               d="m 83.625123,140.39485 c 0,0.33867 0.08467,0.635 0.338667,0.84667 0.254,0.21166 0.550333,0.33866 1.016,0.381 v -2.45534 c -0.465667,0 -0.762,0.127 -1.016,0.33867 -0.254,0.21167 -0.338667,0.508 -0.338667,0.889 z m 5.376333,-0.254 c 0,1.016 -0.254,1.82033 -0.846666,2.413 -0.550334,0.59267 -1.354667,0.889 -2.413,0.889 -1.058334,0 -1.905,-0.29633 -2.497667,-0.84667 -0.592667,-0.508 -0.889,-1.27 -0.889,-2.20133 0,-0.93133 0.254,-1.60867 0.804333,-2.11667 0.508,-0.508 1.227667,-0.762 2.116667,-0.762 h 0.846667 v 4.14867 c 0.508,-0.0423 0.889,-0.16933 1.185333,-0.46567 0.254,-0.254 0.381,-0.635 0.381,-1.143 0,-0.381 0,-0.762 -0.08467,-1.10066 -0.08467,-0.33867 -0.211666,-0.71967 -0.381,-1.05834 h 1.354667 c 0.127,0.29634 0.254,0.59267 0.338667,0.97367 0.04233,0.33867 0.08467,0.762 0.08467,1.27 z"
               fill="#005aa9"
               id="path45"
               style="stroke-width:0.264583" />
            <path
               d="m 83.794452,129.51519 v 1.48167 h 5.122333 v 1.778 h -5.122333 v 0.93133 h -0.846667 l -0.465666,-0.93133 h -0.465667 c -0.719667,0 -1.27,-0.21167 -1.608667,-0.55034 -0.338666,-0.381 -0.508,-0.93133 -0.508,-1.73566 0,-0.59267 0.08467,-1.143 0.296334,-1.60867 l 1.27,0.46567 c -0.127,0.33866 -0.169334,0.67733 -0.169334,0.97366 0,0.254 0.08467,0.42334 0.211667,0.508 0.169333,0.127 0.338667,0.16934 0.592667,0.16934 h 0.381 v -1.48167 z"
               fill="#005aa9"
               id="path47"
               style="stroke-width:0.264583" />
            <path
               d="m 85.699452,127.10219 c 0.635,0 1.100667,-0.0847 1.439333,-0.29633 0.296334,-0.21167 0.465667,-0.55034 0.465667,-1.016 0,-0.46567 -0.169333,-0.80434 -0.465667,-1.016 -0.338666,-0.21167 -0.804333,-0.29634 -1.439333,-0.29634 -0.635,0 -1.143,0.0847 -1.439333,0.29634 -0.338667,0.21166 -0.465667,0.55033 -0.465667,1.016 0,0.46566 0.127,0.80433 0.465667,1.016 0.296333,0.21166 0.762,0.29633 1.439333,0.29633 z m 0,-4.445 c 1.016,0 1.820333,0.29633 2.413,0.84667 0.592667,0.55033 0.889,1.31233 0.889,2.286 0,0.635 -0.127,1.143 -0.381,1.651 -0.296333,0.46566 -0.677333,0.80433 -1.185333,1.05833 -0.508,0.254 -1.100667,0.381 -1.735667,0.381 -1.058333,0 -1.862667,-0.254 -2.455333,-0.80433 -0.592667,-0.55034 -0.889,-1.31234 -0.889,-2.32834 0,-0.59266 0.127,-1.143 0.423333,-1.60866 0.254,-0.46567 0.635,-0.84667 1.143,-1.10067 0.508,-0.254 1.100667,-0.381 1.778,-0.381 z"
               fill="#005aa9"
               id="path49"
               style="stroke-width:0.264583" />
            <path
               d="m 82.355116,117.66186 c 0,-0.254 0.04233,-0.46567 0.04233,-0.59267 l 1.651,0.127 c -0.04233,0.127 -0.04233,0.29634 -0.04233,0.508 0,0.55034 0.127,0.97367 0.423333,1.31234 0.296334,0.29633 0.677334,0.46566 1.185334,0.46566 h 3.302 v 1.73567 h -6.434667 v -1.31233 l 1.100667,-0.254 v -0.0847 c -0.381,-0.21167 -0.677334,-0.46567 -0.889,-0.80433 -0.211667,-0.33867 -0.338667,-0.71967 -0.338667,-1.10067 z"
               fill="#005aa9"
               id="path51"
               style="stroke-width:0.264583" />
            <path
               d="m 81.889456,109.15285 c 0,0.67733 0.254,1.18533 0.719667,1.524 0.508,0.381 1.227666,0.55033 2.116666,0.55033 1.862667,0 2.794,-0.67733 2.794,-2.07433 0,-0.59267 -0.127,-1.31233 -0.423333,-2.159 h 1.481667 c 0.296333,0.67733 0.423333,1.48167 0.423333,2.32833 0,1.18534 -0.338667,2.159 -1.100667,2.794 -0.719666,0.635 -1.820333,0.97367 -3.175,0.97367 -0.889,0 -1.651,-0.16933 -2.286,-0.508 -0.677333,-0.29633 -1.185333,-0.762 -1.524,-1.35467 -0.338666,-0.59266 -0.508,-1.27 -0.508,-2.07433 0,-0.80433 0.169334,-1.651 0.592667,-2.45533 l 1.439333,0.55033 c -0.169333,0.33867 -0.296333,0.635 -0.381,0.97367 -0.127,0.29633 -0.169333,0.635 -0.169333,0.93133 z"
               fill="#005aa9"
               id="path53"
               style="stroke-width:0.264583" />
            <path
               d="m 83.625123,102.71819 c 0,0.33867 0.08467,0.635 0.338667,0.84667 0.254,0.21166 0.550333,0.33866 1.016,0.381 v -2.45534 c -0.465667,0 -0.762,0.127 -1.016,0.33867 -0.254,0.21167 -0.338667,0.508 -0.338667,0.889 z m 5.376333,-0.254 c 0,1.016 -0.254,1.82033 -0.846666,2.413 -0.550334,0.59267 -1.354667,0.889 -2.413,0.889 -1.058334,0 -1.905,-0.29633 -2.497667,-0.80433 -0.592667,-0.55034 -0.889,-1.31234 -0.889,-2.24367 0,-0.889 0.254,-1.60867 0.804333,-2.11667 0.508,-0.508 1.227667,-0.761997 2.116667,-0.761997 h 0.846667 v 4.148667 c 0.508,-0.0423 0.889,-0.16933 1.185333,-0.46567 0.254,-0.254 0.381,-0.635 0.381,-1.143 0,-0.381 0,-0.762 -0.08467,-1.10066 -0.08467,-0.33867 -0.211666,-0.71967 -0.381,-1.05834 h 1.354667 c 0.127,0.29634 0.254,0.635 0.338667,0.97367 0.04233,0.33867 0.08467,0.762 0.08467,1.27 z"
               fill="#005aa9"
               id="path55"
               style="stroke-width:0.264583" />
            <path
               d="m 79.942118,96.664517 h 8.974666 v 1.778 h -8.974666 z m 0,-3.598333 h 8.974666 v 1.778 h -8.974666 z"
               fill="#005aa9"
               fill-rule="evenodd"
               id="path59"
               style="stroke-width:0.264583" />
            <g
               clip-path="url(#cp2)"
               id="g66"
               transform="matrix(0.35277778,0,0,0.35277778,12.928452,8.5265185)">
              <path
                 transform="matrix(0.75,0,0,0.75,215.40001,221.63999)"
                 d="m 0,0 -3.2,0.8 v 0.48 c 1.12,0.64 2.08,1.6 2.56,2.88 0.64,1.44 0.96,2.88 0.96,4.48 0,2.88 -0.8,4.96 -2.24,6.4 -1.6,1.44 -3.68,2.24 -6.56,2.24 h -15.84 v -6.56 h 14.24 c 1.6,0 3.04,-0.32 3.84,-0.96 0.96,-0.64 1.28,-1.6 1.28,-3.04 0,-1.76 -0.64,-3.2 -1.76,-4 C -8,1.92 -10.08,1.44 -12.96,1.44 H -24.32 V -5.12 H 0 Z"
                 fill="#005aa9"
                 id="path64" />
            </g>
            <path
               d="m 79.942118,81.763184 h 8.974666 v 1.778 h -8.974666 z"
               fill="#005aa9"
               id="path68"
               style="stroke-width:0.264583" />
            <g
               clip-path="url(#cp3)"
               id="g87"
               transform="matrix(0.35277778,0,0,0.35277778,12.928452,8.5265185)">
              <path
                 transform="matrix(0.75,0,0,0.75,206.88,192.36002)"
                 d="m 0,0 0.16,2.56 c 0,1.92 0.32,3.36 0.96,4.32 0.64,0.96 1.6,1.44 3.04,1.44 1.76,0 2.72,-1.12 2.72,-3.2 C 6.88,3.52 6.4,2.24 5.6,1.44 4.64,0.48 3.52,0 2.08,0 Z M 11.36,-1.92 8,-0.64 v 0.16 c 1.44,1.12 2.4,2.24 2.88,3.52 0.64,1.12 0.8,2.56 0.8,4.48 0,2.4 -0.64,4.16 -1.92,5.6 -1.44,1.28 -3.2,1.92 -5.76,1.92 -2.56,0 -4.48,-0.8 -5.6,-2.72 C -2.88,10.56 -3.52,7.84 -3.68,4.16 L -3.84,0 H -4.8 c -2.56,0 -3.68,1.28 -3.68,3.84 0,1.92 0.48,4.16 1.76,6.72 l -4.48,2.24 c -1.44,-2.72 -2.24,-5.92 -2.24,-9.28 0,-3.2 0.64,-5.76 2.08,-7.52 1.44,-1.6 3.68,-2.56 6.56,-2.56 h 16.16 z"
                 fill="#005aa9"
                 id="path73" />
              <path
                 transform="matrix(0.75,0,0,0.75,196.79999,172.20001)"
                 d="M 0,0 C 0,-0.96 0.16,-1.6 0.16,-2.24 L 6.4,-1.76 C 6.24,-1.12 6.24,-0.48 6.24,0.16 6.24,2.4 6.72,4 7.84,5.12 8.96,6.4 10.4,6.88 12.32,6.88 H 24.8 V 13.6 H 0.48 V 8.48 L 4.64,7.52 V 7.2 C 3.2,6.4 2.08,5.44 1.28,4.16 0.48,2.88 0,1.44 0,0 Z"
                 fill="#005aa9"
                 id="path75" />
              <path
                 transform="matrix(0.75,0,0,0.75,246.84,496.08003)"
                 d="m 0,0 0.16,2.56 c 0,1.92 0.32,3.36 0.96,4.16 C 1.76,7.68 2.72,8.16 4,8.16 5.92,8.16 6.88,7.2 6.88,4.96 6.88,3.52 6.4,2.24 5.6,1.28 4.64,0.32 3.52,0 2.08,0 Z M 11.2,-2.08 8,-0.8 v 0.32 c 1.44,0.96 2.4,2.24 2.88,3.36 0.48,1.12 0.8,2.72 0.8,4.64 0,2.24 -0.64,4.16 -1.92,5.44 -1.44,1.28 -3.2,2.08 -5.76,2.08 -2.56,0 -4.48,-0.96 -5.6,-2.72 C -2.88,10.56 -3.52,7.84 -3.68,4.16 L -3.84,0 H -4.8 c -2.56,0 -3.84,1.12 -3.84,3.68 0,1.92 0.64,4.32 1.76,6.88 l -4.32,2.24 c -1.6,-2.88 -2.24,-5.92 -2.24,-9.28 0,-3.36 0.64,-5.76 2.08,-7.52 1.44,-1.76 3.52,-2.56 6.56,-2.56 h 16 z"
                 fill="#005aa9"
                 id="path77" />
              <path
                 transform="matrix(0.75,0,0,0.75,255.24,469.19999)"
                 d="m 0,0 v 6.72 h -14.08 c -1.76,0 -3.04,0.32 -4,0.8 -0.8,0.64 -1.28,1.6 -1.28,3.04 0,1.92 0.64,3.2 1.92,4 1.12,0.8 3.2,1.28 6.08,1.28 H 0 v 6.56 h -24.16 v -5.12 l 3.04,-0.8 v -0.32 c -1.12,-0.8 -1.92,-1.76 -2.56,-3.04 -0.64,-1.28 -0.96,-2.88 -0.96,-4.48 0,-2.88 0.8,-4.96 2.24,-6.4 C -20.8,0.8 -18.56,0 -15.68,0 Z"
                 fill="#005aa9"
                 id="path79" />
              <path
                 transform="matrix(0.75,0,0,0.75,251.63999,456.59999)"
                 d="M 0,0 C 0,-1.6 -0.48,-2.88 -1.44,-3.68 -2.4,-4.48 -4.16,-4.96 -6.4,-4.96 h -0.8 c -2.56,0 -4.48,0.32 -5.6,1.12 -1.12,0.96 -1.6,2.24 -1.6,4 0,1.44 0.64,2.56 1.76,3.36 1.28,0.96 3.2,1.28 5.6,1.28 2.24,0 4.16,-0.32 5.28,-1.28 C -0.48,2.72 0,1.6 0,0 Z m 5.28,2.4 c 0,2.88 -1.12,5.12 -3.36,6.72 -2.08,1.6 -5.28,2.4 -9.12,2.4 -4,0 -7.04,-0.8 -9.28,-2.56 -2.24,-1.6 -3.36,-3.84 -3.36,-6.72 0,-3.04 1.28,-5.44 3.52,-7.04 v -0.16 c -1.76,0.32 -3.36,0.48 -4.8,0.48 H -28.8 V -11.2 H 4.8 v 5.12 L 1.76,-4.8 v 0.32 c 2.4,1.44 3.52,3.84 3.52,6.88 z"
                 fill="#005aa9"
                 id="path81" />
              <path
                 transform="matrix(0.75,0,0,0.75,255.24,423.96003)"
                 d="m 0,0 -24.8,7.68 v 0.16 c 5.12,-0.32 8.48,-0.48 10.08,-0.48 H 0 v 6.08 H -31.68 V 4.32 L -7.36,-3.2 v -0.16 l -24.32,-8 v -9.12 H 0 v 6.24 h -14.88 c -0.8,0 -1.6,0 -2.56,0 -0.8,0 -3.36,-0.16 -7.36,-0.32 v 0.16 L 0,-6.08 Z"
                 fill="#005aa9"
                 id="path83" />
              <path
                 transform="matrix(0.75,0,0,0.75,246.12,399.12)"
                 d="M 0,0 C 2.4,0 4.32,-0.48 5.44,-1.28 6.72,-2.08 7.36,-3.36 7.36,-5.12 7.36,-6.88 6.72,-8.16 5.6,-8.96 4.32,-9.6 2.56,-10.08 0,-10.08 c -2.4,0 -4.16,0.48 -5.28,1.12 -1.28,0.8 -1.92,2.08 -1.92,3.84 0,1.76 0.64,3.04 1.92,3.84 C -4.16,-0.48 -2.4,0 0,0 Z m 0,-16.8 c 4,0 7.04,0.96 9.28,3.04 2.24,2.08 3.36,5.12 3.36,8.8 0,2.24 -0.48,4.32 -1.44,6.08 C 10.08,2.88 8.64,4.32 6.72,5.28 4.8,6.24 2.56,6.72 0,6.72 c -3.84,0 -7.04,-1.12 -9.12,-3.2 -2.24,-2.08 -3.36,-4.96 -3.36,-8.64 0,-2.4 0.48,-4.32 1.6,-6.24 0.96,-1.76 2.4,-3.04 4.32,-4 1.92,-0.96 4.16,-1.44 6.56,-1.44 z"
                 fill="#005aa9"
                 id="path85" />
            </g>
            <path
               d="m 94.039118,141.66485 h 8.974662 v 1.778 h -8.974662 z"
               fill="#005aa9"
               id="path89"
               style="stroke-width:0.264583" />
            <g
               clip-path="url(#cp4)"
               id="g100"
               transform="matrix(0.35277778,0,0,0.35277778,12.928452,8.5265185)">
              <path
                 transform="matrix(0.75,0,0,0.75,240.36002,364.68)"
                 d="m 0,0 c 0,1.44 0.32,2.56 1.28,3.36 0.8,0.8 2.08,1.28 3.84,1.44 V -4.48 C 3.36,-4.48 2.08,-4.16 1.28,-3.2 0.32,-2.4 0,-1.28 0,0 Z m 20.32,-0.8 c 0,3.84 -1.12,6.88 -3.2,9.12 -2.08,2.08 -5.28,3.2 -9.12,3.2 -4.16,0 -7.2,-0.96 -9.44,-3.04 -2.24,-1.92 -3.36,-4.8 -3.36,-8.32 0,-3.52 0.96,-6.08 2.88,-8 2.08,-1.92 4.64,-2.88 8.16,-2.88 h 3.2 V 4.8 c 1.92,0 3.36,-0.48 4.48,-1.6 0.96,-0.96 1.44,-2.56 1.44,-4.32 0,-1.44 -0.16,-2.88 -0.32,-4.16 -0.32,-1.28 -0.8,-2.72 -1.6,-4.16 h 5.12 c 0.64,1.28 1.12,2.4 1.44,3.84 0.16,1.28 0.32,2.88 0.32,4.8 z"
                 fill="#005aa9"
                 id="path94" />
              <path
                 transform="matrix(0.75,0,0,0.75,255.59999,345.24)"
                 d="m 0,0 c 0,7.52 -4.16,11.2 -12.32,11.2 -4.16,0 -7.36,-0.96 -9.44,-3.04 -2.24,-2.08 -3.36,-4.96 -3.36,-8.8 0,-2.72 0.64,-5.28 1.6,-7.52 l 5.12,1.92 c -0.32,1.12 -0.64,2.08 -0.96,2.88 -0.32,0.96 -0.48,1.76 -0.48,2.72 0,3.52 2.56,5.12 7.36,5.12 4.8,0 7.2,-1.6 7.2,-5.12 0,-1.28 -0.16,-2.4 -0.48,-3.52 -0.48,-1.12 -0.96,-2.24 -1.6,-3.2 h 5.6 c 0.64,0.96 1.12,2.08 1.44,3.2 C -0.16,-3.04 0,-1.76 0,0 Z"
                 fill="#005aa9"
                 id="path96" />
              <path
                 transform="matrix(0.75,0,0,0.75,255.24,322.56)"
                 d="m 0,0 -3.04,0.96 v 0.32 c 1.12,0.64 2.08,1.76 2.56,3.04 0.64,1.28 0.96,2.72 0.96,4.48 0,2.72 -0.8,4.96 -2.24,6.4 -1.6,1.44 -3.68,2.08 -6.56,2.08 h -15.84 v -6.56 h 14.08 c 1.76,0 3.2,-0.32 4,-0.96 0.8,-0.64 1.28,-1.6 1.28,-2.88 0,-1.92 -0.64,-3.2 -1.76,-4 C -7.84,1.92 -9.92,1.6 -12.8,1.6 H -24.16 V -4.96 H 0 Z"
                 fill="#005aa9"
                 id="path98" />
            </g>
            <path
               d="m 94.039118,117.36552 h 8.974662 v 1.82033 h -8.974662 z"
               fill="#005aa9"
               id="path102"
               style="stroke-width:0.264583" />
            <g
               clip-path="url(#cp5)"
               id="g127"
               transform="matrix(0.35277778,0,0,0.35277778,12.928452,8.5265185)">
              <path
                 transform="matrix(0.75,0,0,0.75,246.84,293.40003)"
                 d="m 0,0 0.16,2.56 c 0,1.92 0.32,3.36 0.96,4.16 C 1.76,7.68 2.72,8.16 4,8.16 5.92,8.16 6.88,7.2 6.88,4.96 6.88,3.52 6.4,2.24 5.6,1.28 4.64,0.32 3.52,0 2.08,0 Z M 11.2,-2.08 8,-0.8 v 0.16 c 1.44,1.12 2.4,2.4 2.88,3.52 0.48,1.12 0.8,2.72 0.8,4.64 0,2.24 -0.64,4.16 -1.92,5.44 -1.44,1.28 -3.2,2.08 -5.76,2.08 -2.56,0 -4.48,-0.96 -5.6,-2.72 C -2.88,10.56 -3.52,7.84 -3.68,4.16 L -3.84,0 H -4.8 c -2.56,0 -3.84,1.12 -3.84,3.68 0,1.92 0.64,4.16 1.76,6.88 l -4.32,2.24 c -1.6,-2.88 -2.24,-5.92 -2.24,-9.28 0,-3.36 0.64,-5.76 2.08,-7.52 1.44,-1.76 3.52,-2.56 6.56,-2.56 h 16 z"
                 fill="#005aa9"
                 id="path107" />
              <path
                 transform="matrix(0.75,0,0,0.75,236.76,273.24)"
                 d="m 0,0 c 0,-0.96 0.16,-1.76 0.16,-2.24 l 6.24,0.48 c -0.16,0.48 -0.16,1.12 -0.16,1.92 0,2.08 0.48,3.68 1.6,4.96 1.12,1.12 2.56,1.76 4.48,1.76 h 12.32 v 6.56 H 0.48 V 8.48 l 4,-0.96 V 7.2 C 3.2,6.4 2.08,5.44 1.28,4.16 0.48,2.88 0,1.44 0,0 Z"
                 fill="#005aa9"
                 id="path109" />
              <path
                 transform="matrix(0.75,0,0,0.75,255.24,249.12)"
                 d="m 0,0 -24.8,7.68 v 0.16 c 5.12,-0.32 8.48,-0.48 10.08,-0.48 H 0 v 6.08 H -31.68 V 4.32 L -7.36,-3.2 v -0.16 l -24.32,-8 v -9.12 H 0 v 6.24 h -14.88 c -0.8,0 -1.6,0 -2.56,0 -0.8,0 -3.36,-0.16 -7.36,-0.32 v 0.16 L 0,-6.24 Z"
                 fill="#005aa9"
                 id="path111" />
              <path
                 transform="matrix(0.75,0,0,0.75,240.36002,220.68)"
                 d="M 0,0 C 0,1.28 0.32,2.4 1.28,3.2 2.08,4 3.36,4.48 5.12,4.64 v -9.28 c -1.76,0 -3.04,0.48 -3.84,1.28 C 0.32,-2.56 0,-1.44 0,0 Z m 20.32,-0.96 c 0,3.84 -1.12,6.88 -3.2,9.12 C 15.04,10.4 11.84,11.52 8,11.52 3.84,11.52 0.8,10.4 -1.44,8.48 -3.68,6.4 -4.8,3.52 -4.8,0 c 0,-3.36 0.96,-6.08 2.88,-8 2.08,-1.92 4.64,-2.88 8.16,-2.88 h 3.2 V 4.8 c 1.92,-0.16 3.36,-0.64 4.48,-1.76 0.96,-0.96 1.44,-2.4 1.44,-4.32 0,-1.44 -0.16,-2.88 -0.32,-4.16 -0.32,-1.28 -0.8,-2.56 -1.6,-4 h 5.12 c 0.64,1.12 1.12,2.4 1.44,3.68 0.16,1.28 0.32,2.88 0.32,4.8 z"
                 fill="#005aa9"
                 id="path113" />
              <path
                 transform="matrix(0.75,0,0,0.75,251.63999,201)"
                 d="M 0,0 C 0,-1.6 -0.48,-2.88 -1.44,-3.68 -2.4,-4.48 -4.16,-4.96 -6.4,-4.96 h -0.8 c -2.56,0 -4.48,0.32 -5.6,1.12 -1.12,0.8 -1.6,2.08 -1.6,4 0,1.44 0.64,2.56 1.76,3.36 1.28,0.8 3.2,1.28 5.6,1.28 2.24,0 4.16,-0.48 5.28,-1.28 C -0.48,2.72 0,1.6 0,0 Z m 5.28,2.4 c 0,2.72 -1.12,4.96 -3.36,6.56 -2.08,1.76 -5.28,2.56 -9.12,2.56 -4,0 -7.04,-0.8 -9.28,-2.56 -2.24,-1.6 -3.36,-3.84 -3.36,-6.88 0,-3.04 1.28,-5.28 3.52,-6.88 v -0.16 c -1.76,0.32 -3.36,0.48 -4.8,0.48 H -28.8 V -11.2 H 4.8 v 5.12 L 1.76,-4.8 v 0.32 c 2.4,1.44 3.52,3.68 3.52,6.88 z"
                 fill="#005aa9"
                 id="path115" />
              <path
                 transform="matrix(0.75,0,0,0.75,255.24,182.52)"
                 d="M 0,0 V 6.56 H -24.16 V 0 Z m -30.4,6.88 c -2.24,0 -3.2,-1.28 -3.2,-3.68 0,-2.4 0.96,-3.52 3.2,-3.52 0.96,0 1.76,0.32 2.4,0.8 0.48,0.64 0.8,1.6 0.8,2.72 0,2.4 -1.12,3.68 -3.2,3.68 z"
                 fill="#005aa9"
                 id="path117" />
              <path
                 transform="matrix(0.75,0,0,0.75,255.59999,169.92)"
                 d="m 0,0 c 0,7.52 -4.16,11.36 -12.32,11.36 -4.16,0 -7.36,-1.12 -9.44,-3.2 -2.24,-2.08 -3.36,-4.96 -3.36,-8.8 0,-2.72 0.64,-5.28 1.6,-7.52 l 5.12,1.92 c -0.32,1.12 -0.64,2.08 -0.96,2.88 -0.32,0.96 -0.48,1.92 -0.48,2.72 0,3.52 2.56,5.12 7.36,5.12 4.8,0 7.2,-1.6 7.2,-5.12 0,-1.28 -0.16,-2.4 -0.48,-3.52 -0.48,-1.12 -0.96,-2.08 -1.6,-3.2 h 5.6 c 0.64,0.96 1.12,2.08 1.44,3.2 C -0.16,-3.04 0,-1.76 0,0 Z"
                 fill="#005aa9"
                 id="path119" />
              <path
                 transform="matrix(0.75,0,0,0.75,255.24,155.16)"
                 d="M 0,0 V 6.72 H -24.16 V 0 Z m -30.4,6.88 c -2.24,0 -3.2,-1.12 -3.2,-3.52 0,-2.4 0.96,-3.68 3.2,-3.68 0.96,0 1.76,0.32 2.4,0.96 0.48,0.64 0.8,1.44 0.8,2.72 0,2.4 -1.12,3.52 -3.2,3.52 z"
                 fill="#005aa9"
                 id="path121" />
              <path
                 transform="matrix(0.75,0,0,0.75,255.24,133.20001)"
                 d="m 0,0 v 6.72 h -14.08 c -1.76,0 -3.04,0.16 -4,0.8 -0.8,0.64 -1.28,1.6 -1.28,3.04 0,1.76 0.64,3.2 1.92,4 1.12,0.8 3.2,1.28 6.08,1.28 H 0 v 6.56 h -24.16 v -5.12 l 3.04,-0.8 v -0.32 c -1.12,-0.8 -1.92,-1.76 -2.56,-3.04 -0.64,-1.44 -0.96,-2.88 -0.96,-4.48 0,-2.88 0.8,-4.96 2.24,-6.4 C -20.8,0.8 -18.56,0 -15.68,0 Z"
                 fill="#005aa9"
                 id="path123" />
              <path
                 transform="matrix(0.75,0,0,0.75,240.36002,120.60001)"
                 d="m 0,0 c 0,1.44 0.32,2.56 1.28,3.36 0.8,0.8 2.08,1.12 3.84,1.28 v -9.28 c -1.76,0 -3.04,0.48 -3.84,1.28 C 0.32,-2.56 0,-1.44 0,0 Z m 20.32,-0.96 c 0,4 -1.12,7.04 -3.2,9.12 C 15.04,10.4 11.84,11.52 8,11.52 3.84,11.52 0.8,10.56 -1.44,8.48 -3.68,6.4 -4.8,3.68 -4.8,0 c 0,-3.36 0.96,-6.08 2.88,-8 2.08,-1.92 4.64,-2.88 8.16,-2.88 h 3.2 V 4.8 c 1.92,0 3.36,-0.64 4.48,-1.6 0.96,-1.12 1.44,-2.56 1.44,-4.48 0,-1.44 -0.16,-2.72 -0.32,-4.16 -0.32,-1.28 -0.8,-2.56 -1.6,-4 h 5.12 c 0.64,1.12 1.12,2.4 1.44,3.68 0.16,1.28 0.32,2.88 0.32,4.8 z"
                 fill="#005aa9"
                 id="path125" />
            </g>
          </g>
          <g
             id="g1016">
            <path
               d="m 46.752785,179.25685 h 30.310666 v 8.255 H 46.752785 Z"
               fill="#005aa9"
               id="path129"
               style="stroke-width:0.264583" />
            <path
               d="m 53.018119,159.23318 c 0,1.94733 0.804333,3.47133 2.413,4.572 1.566333,1.10067 3.767667,1.651 6.604,1.651 5.799666,0 8.720666,-2.24367 8.720666,-6.64633 0,-1.35467 -0.169333,-2.667 -0.550333,-3.89467 -0.381,-1.27 -0.846667,-2.54 -1.354667,-3.81 h 6.900334 c 1.143,2.54 1.693333,5.37633 1.693333,8.59367 0,4.572 -1.312333,8.04333 -3.979333,10.49866 -2.624667,2.413 -6.477,3.64067 -11.472333,3.64067 -3.132667,0 -5.884334,-0.59267 -8.297334,-1.778 -2.370666,-1.143 -4.191,-2.87867 -5.461,-5.08 -1.27,-2.20133 -1.905,-4.826 -1.905,-7.83167 0,-3.25966 0.719667,-6.39233 2.116667,-9.35566 l 6.434667,2.49766 c -0.508,1.10067 -0.931334,2.24367 -1.312334,3.34434 -0.338666,1.143 -0.550333,2.32833 -0.550333,3.59833 z"
               fill="#005aa9"
               id="path134"
               style="stroke-width:0.264583" />
            <path
               d="m 77.021123,132.01285 -21.801666,6.18067 v 0.21166 c 3.725333,-0.29633 6.604,-0.42333 8.678333,-0.42333 h 13.123333 v 7.239 H 46.75279 v -10.922 l 21.505333,-6.30767 v -0.16933 L 46.75279,121.64118 v -10.922 h 30.268333 v 7.53534 H 63.77079 c -0.719667,0 -1.481667,0 -2.328333,-0.0423 -0.804334,0 -2.878667,-0.127 -6.180667,-0.29633 v 0.21167 l 21.759333,6.096 z"
               fill="#005aa9"
               id="path136"
               style="stroke-width:0.264583" />
            <path
               d="m 77.021123,91.034186 -21.801666,6.180667 v 0.169333 c 3.725333,-0.296333 6.604,-0.423333 8.678333,-0.423333 h 13.123333 v 7.238997 H 46.75279 V 93.320186 l 21.505333,-6.307667 v -0.169333 l -21.505333,-6.223 V 69.74052 h 30.268333 v 7.493 H 63.77079 c -0.719667,0 -1.481667,0 -2.328333,0 -0.804334,-0.04233 -2.878667,-0.127 -6.180667,-0.296334 v 0.169334 l 21.759333,6.138333 z"
               fill="#005aa9"
               id="path138"
               style="stroke-width:0.264583" />
          </g>
        </g>
      </g>
    </g>
  </g>
</svg>
